<svg xmlns="http://www.w3.org/2000/svg" viewBox="0 0 64 64">
  <path d="M16 14c-3 0-6 2-7 6l-1 9c0 7 5 13 12 14v4c0 3 2 5 5 5h14c3 0 5-2 5-5v-4c7-1 12-7 12-14l-1-9c-1-4-4-6-7-6-2 0-4 1-5 3-3-2-7-3-11-3s-8 1-11 3c-1-2-3-3-5-3z" fill="none" stroke="#1f1f1f" stroke-width="3" stroke-linejoin="round"/>
  <circle cx="25" cy="33" r="2.5" fill="#1f1f1f"/>
  <circle cx="39" cy="33" r="2.5" fill="#1f1f1f"/>
  <path d="M32 38v4M28 44c1.5 1.5 6.5 1.5 8 0" fill="none" stroke="#1f1f1f" stroke-width="3" stroke-linecap="round"/>
</svg>
